<svg width="52" height="51" viewBox="0 0 52 51" fill="none" xmlns="http://www.w3.org/2000/svg">
<path d="M49.8825 15.8063C48.1585 11.7092 45.3821 8.13175 41.83 5.43051C38.2778 2.72927 34.074 0.998569 29.6374 0.410882C25.2008 -0.176805 20.6864 0.399048 16.5441 2.08105C12.4017 3.76306 8.77617 6.49247 6.02866 9.99729C3.28116 13.5021 1.50768 17.6599 0.884951 22.0564C0.262224 26.4529 0.812004 30.9344 2.4795 35.0545C4.147 39.1745 6.87397 42.7892 10.3887 45.5382C13.9034 48.2872 18.083 50.0746 22.5111 50.7223C21.9311 48.6491 21.3411 46.3578 20.8211 43.9275C22.3339 44.9009 23.9262 45.747 25.5813 46.457V46.457C25.5813 46.457 25.7013 48.5995 25.8613 50.9901C27.6496 51.0207 29.4362 50.8644 31.1916 50.5239C31.1462 50.2746 31.1462 50.0193 31.1916 49.77C31.4816 47.9151 32.2816 44.5723 32.4416 42.4198C33.595 41.3498 34.5734 40.1082 35.3418 38.7397V38.7397L35.2818 39.1762C34.7317 43.4018 33.5817 47.9151 32.8817 49.1649C32.655 49.5786 32.3761 49.962 32.0516 50.3056C35.6716 49.4633 39.0636 47.8502 41.9924 45.5781C44.9212 43.3059 47.3168 40.4292 49.013 37.1473C50.7093 33.8653 51.6656 30.2568 51.8158 26.5717C51.9659 22.8867 51.3062 19.2133 49.8825 15.8063V15.8063ZM48.4124 19.5657C47.9724 19.9923 47.0624 20.2799 46.9123 18.9904C46.7623 17.7009 46.7223 16.7983 46.7223 16.7983C46.7223 16.7983 44.7922 13.3959 44.0722 13.3563C43.3522 13.3166 38.2419 16.7983 36.8919 18.3159C35.7218 19.5955 35.4918 19.5062 35.4918 21.7579C35.4918 23.4541 35.7118 29.862 35.5918 34.7621L27.4414 36.9146C24.8796 37.6438 22.2744 38.2137 19.641 38.6207L18.6409 32.8378H18.5009L15.9308 19.774C15.9308 19.774 12.1206 18.3457 10.7206 17.9588C10.0632 17.6735 9.33721 17.5808 8.6284 17.6915C7.91959 17.8023 7.25752 18.1118 6.72036 18.5837C6.17235 19.0597 5.73415 19.6471 5.43561 20.3061C5.13706 20.9651 4.98517 21.6802 4.99027 22.4027C5.20167 22.8637 5.3626 23.3459 5.4703 23.841C5.5203 24.3171 4.27024 24.2675 3.4702 24.2675C2.67016 24.2675 2.55015 22.8391 3.18018 21.1627C3.67171 19.8737 4.28094 18.632 5.00027 17.4529C5.54132 16.3997 6.23918 15.4333 7.07038 14.5862C7.07038 14.5862 7.21038 14.249 8.32044 14.3482C9.43049 14.4474 15.6008 14.7747 15.6008 14.7747L15.6508 12.523C22.3575 11.6045 29.1216 11.1603 35.8918 11.1938C35.8918 11.7989 35.8918 12.404 35.8918 13.0091C38.4562 11.8483 41.2175 11.1754 44.0322 11.0252C44.1828 11.0214 44.332 11.0548 44.4664 11.1223C44.6008 11.1898 44.7162 11.2894 44.8022 11.4121C45.1423 11.8386 47.2124 14.3879 47.4524 14.7549C48.1246 15.7078 48.7359 16.7017 49.2825 17.7307C49.0951 18.3822 48.8012 18.9988 48.4124 19.5558V19.5657Z" fill="#FDC305"/>
</svg>
