<svg width="29" height="20" viewBox="0 0 29 20" fill="none" xmlns="http://www.w3.org/2000/svg">
<path d="M25.9313 2.77404C25.9313 2.77404 22.1211 1.34566 20.721 0.958811C20.0636 0.673542 19.3377 0.580797 18.6289 0.691529C17.9201 0.80226 17.258 1.11184 16.7208 1.58373C16.1728 2.05966 15.7346 2.64712 15.4361 3.30613C15.1375 3.96513 14.9856 4.6802 14.9907 5.40266C15.2021 5.86369 15.3631 6.34588 15.4708 6.84096C15.5208 7.31708 14.2707 7.26749 13.4707 7.26749C12.6706 7.26749 12.5506 5.83911 13.1807 4.16275C13.6722 2.87374 14.2814 1.63197 15.0007 0.452927C9.55047 3.27001 0 9.77707 0 9.77707C2.73182 9.61366 5.47292 9.69333 8.1904 10.0151C13.4407 10.5409 13.1907 14.6474 13.1907 14.6474C15.0373 14.1425 16.9192 13.7745 18.8209 13.5464C20.941 13.4075 21.091 15.6493 21.091 15.6493L21.6211 19.4781C22.4259 18.6145 23.3134 17.8305 24.2712 17.1372C25.5057 16.157 27.0776 15.6942 28.6514 15.8477V15.8477L25.9313 2.77404Z" fill="#F06351"/>
</svg>
