<svg width="25" height="12" viewBox="0 0 25 12" fill="none" xmlns="http://www.w3.org/2000/svg">
<path d="M22.8822 0.989243C21.077 2.60339 19.3768 4.32951 17.792 6.1572C16.2133 7.97172 14.4318 9.60234 12.4817 11.0177C12.2617 10.4919 10.8516 9.50992 10.8516 9.50992C10.8516 9.50992 7.71146 7.37727 5.65136 5.70091C4.53771 4.78088 3.48856 3.78665 2.51121 2.72512L0.511108 2.61601C3.39829 6.79913 7.62801 9.88973 12.5117 11.3847C13.3717 11.2458 15.7919 9.52976 17.602 8.13114C19.7434 6.32473 21.7489 4.3654 23.6022 2.26883C24.1004 1.68158 24.4867 1.00936 24.7423 0.284973C23.6023 0.661907 22.8822 0.989243 22.8822 0.989243Z" fill="#F06351"/>
</svg>
