<svg width="26" height="22" viewBox="0 0 26 22" fill="none" xmlns="http://www.w3.org/2000/svg">
<path d="M11.4628 0.495125C11.9329 1.09028 12.3429 1.616 12.4629 1.77471C13.1351 2.72766 13.7464 3.72154 14.293 4.7505C14.1027 5.38064 13.8124 5.97666 13.4329 6.51614C12.9929 6.94267 12.0829 7.23033 11.9329 5.94082C11.7829 4.65131 11.7229 3.79825 11.7229 3.79825C11.7229 3.79825 9.79277 0.395932 9.07273 0.356255C8.3527 0.316578 3.24244 3.79825 1.89238 5.3159C0.722319 6.59549 0.49231 6.50622 0.49231 8.7579C0.49231 10.2458 0.662315 15.3542 0.622313 19.8973C2.4324 20.0957 5.09253 20.5916 5.89257 21.7621C5.89257 21.7621 5.60256 14.64 13.703 18.3697C13.703 18.3697 13.983 8.65871 25.1635 11.1485C21.3628 6.72231 16.7035 3.0994 11.4628 0.495125V0.495125Z" fill="#F06351"/>
</svg>
