<svg width="9" height="3" viewBox="0 0 9 3" fill="none" xmlns="http://www.w3.org/2000/svg">
<path d="M3.30152 2.63954C2.83354 2.57281 2.38404 2.41272 1.98014 2.16893C1.57625 1.92514 1.22634 1.6027 0.951527 1.22108C0.926929 1.1938 0.91333 1.15849 0.91333 1.12189C0.91333 1.08529 0.926929 1.04998 0.951527 1.0227C0.964562 1.0095 0.98012 0.999016 0.997292 0.991859C1.01446 0.984702 1.0329 0.981016 1.05153 0.981016C1.07015 0.981016 1.08859 0.984702 1.10576 0.991859C1.12293 0.999016 1.13849 1.0095 1.15153 1.0227C1.39899 1.36706 1.71294 1.65925 2.07515 1.88232C2.43735 2.10538 2.84061 2.25488 3.26152 2.32213C3.59451 2.29731 3.91681 2.19445 4.20192 2.02201C4.48702 1.84957 4.7268 1.61246 4.90153 1.3302L5.04153 1.14173L5.14152 1.35995C5.14152 1.35995 5.52152 2.11382 6.14152 2.1535C6.76152 2.19318 7.20153 1.73689 7.77153 0.873907C7.79274 0.842338 7.82574 0.820423 7.86324 0.812982C7.90075 0.805541 7.9397 0.813185 7.97153 0.834231C8.00335 0.855277 8.02545 0.888001 8.03295 0.925206C8.04045 0.96241 8.03274 1.00105 8.01152 1.03262C7.34486 2.00471 6.71486 2.47091 6.12152 2.43124C5.8922 2.40109 5.67258 2.32042 5.47877 2.19512C5.28497 2.06982 5.1219 1.90308 5.00153 1.70713C4.80587 1.97814 4.55176 2.20246 4.25767 2.36376C3.96359 2.52505 3.63695 2.61927 3.30152 2.63954Z" fill="black"/>
</svg>
