<svg xmlns="http://www.w3.org/2000/svg">

<!-- INDEX.HTML -->

  <symbol viewBox="0 0 30 32" id="icon-leaf">
    <g clip-path="url(#clip0_130_911)">
      <path d="M27.8438 2.767C27.7434 2.317 27.3647 2 26.9325 2C26.9306 2 26.9288 2 26.9269 2C21.9891 2.033 9.98156 2.916 5.13375 10.38C2.61562 14.258 2.39906 19.293 4.48969 25.345C4.50562 25.392 4.53844 25.424 4.56 25.467C3.81281 27.44 3.52312 28.753 3.51562 28.79C3.40687 29.33 3.73031 29.862 4.23656 29.978C4.30219 29.993 4.36781 30 4.43344 30C4.86562 30 5.25469 29.679 5.34937 29.21C5.36906 29.108 7.75781 18.837 16.2028 12.832C16.6341 12.526 16.7503 11.905 16.4625 11.445C16.1747 10.985 15.5934 10.86 15.1622 11.168C10.3734 14.573 7.42406 19.176 5.68969 22.824C4.44844 18.246 4.77375 14.447 6.67594 11.519C10.4194 5.755 19.2984 4.365 24.6581 4.071C23.505 5.872 22.245 9.174 22.245 15C22.245 18.12 21.4153 20.522 19.7803 22.14C17.1591 24.731 12.9009 24.974 9.78656 24.724C9.26906 24.679 8.82 25.095 8.78062 25.646C8.74125 26.196 9.12844 26.676 9.64406 26.718C10.2675 26.769 10.9331 26.8 11.625 26.8C14.7956 26.8 18.4941 26.137 21.0544 23.606C23.0888 21.595 24.12 18.7 24.12 15.001C24.12 5.902 27.3356 3.905 27.3516 3.896C27.7416 3.687 27.9459 3.219 27.8438 2.767Z"/>
    </g>
    <defs>
      <clipPath id="clip0_130_911">
        <rect width="30" height="32" fill="white"/>
      </clipPath>
    </defs>
  </symbol>

  <symbol id="icon-tub" viewBox="0 0 29 31" fill="none">
    <g fill="#fff" clip-path="url(#a)">
      <path d="M20.78 18.47c-1.71 0-3.1 1.48-3.1 3.3 0 1.83 1.4 3.3 3.1 3.3 1.7 0 3.08-1.47 3.08-3.3 0-1.82-1.38-3.3-3.08-3.3Zm0 5.02c-.89 0-1.6-.77-1.6-1.71 0-.95.71-1.72 1.6-1.72.88 0 1.6.77 1.6 1.72 0 .94-.72 1.7-1.6 1.7ZM11.6-.01c-1.75 0-3.18 1.52-3.18 3.4 0 1.89 1.43 3.41 3.19 3.41s3.18-1.52 3.18-3.4c0-1.89-1.42-3.41-3.18-3.41Zm0 5.48c-1.06 0-1.93-.93-1.93-2.07 0-1.15.87-2.07 1.94-2.07 1.07 0 1.93.92 1.93 2.07 0 1.14-.86 2.07-1.93 2.07ZM8.23 17.61c-1.3 0-2.34 1.12-2.34 2.5 0 1.39 1.04 2.5 2.34 2.5 1.3 0 2.34-1.11 2.34-2.5 0-1.38-1.05-2.5-2.34-2.5ZM8 19.5c-.46 0 1.16 1.1 1.16.61 0-.49-1.62.39-1.16.39.46 0 1.06-.88 1.06-.39 0 .5-.6-.61-1.06-.61Zm10.5-9.74s3.04-.84 6.18 1.5c.9.76 1.76 1.33 1.15 2.12-.34.34-.64.66-1.72-.53a6.92 6.92 0 0 0-5.61-1.44c-1.13.24-1.96.55-3.56 2.15a8.27 8.27 0 0 1-6.5 2.5c-2.52-.24-3.84-1.27-5.24-2.55-.3-.42-.3-.87-.12-1.13.17-.26.83-.52 1.2-.13.37.4 2.1 1.97 3.82 2.07 1.72.1 3.44.21 5.74-1.96 2.3-2.18 3.46-2.34 4.66-2.6Z"/>
      <mask id="b">
        <path d="M28.65 26.82V8.16c0-.58-.38-.65-.53-.66h-.5c-.5 0-.54.56-.54.74v18.6a2.68 2.68 0 0 1-.82 1.89c-.81.7-1.62.6-1.62.6s-20.18 0-20.66-.03a2.3 2.3 0 0 1-1.6-1c-.57-.8-.46-1.85-.46-1.85V8.3c0-.83-.67-.8-.67-.8h-.3c-.54 0-.6.58-.6.77v18.54c0 1.33.46 2.4 1.55 3.33 1.1.94 2.38.86 2.38.86h20.58c.86 0 1.98-.42 2.91-1.56.93-1.14.88-2.63.88-2.63Z"/>
      </mask>
      <path d="M28.65 26.82V8.16c0-.58-.38-.65-.53-.66h-.5c-.5 0-.54.56-.54.74v18.6a2.68 2.68 0 0 1-.82 1.89c-.81.7-1.62.6-1.62.6s-20.18 0-20.66-.03a2.3 2.3 0 0 1-1.6-1c-.57-.8-.46-1.85-.46-1.85V8.3c0-.83-.67-.8-.67-.8h-.3c-.54 0-.6.58-.6.77v18.54c0 1.33.46 2.4 1.55 3.33 1.1.94 2.38.86 2.38.86h20.58c.86 0 1.98-.42 2.91-1.56.93-1.14.88-2.63.88-2.63Z"/>
      <path d="M28.65 26.82h-20v.38l.01.39 19.99-.77ZM28.12 7.5l.71-19.99h-.71v20Zm-1.04.74-20-.15v.15h20Zm0 .06h-20 20Zm0 18.54-19.99-.76v.02l19.99.74Zm-.82 1.89 13.03 15.16.44-.37.4-.4-13.87-14.4Zm-1.62.6L26.9 9.46l-1.13-.13h-1.13v20ZM3.98 29.3.58 49.01l1.14.2 1.15.06L3.98 29.3Zm-1.6-1-16.35 11.52L2.39 28.3Zm-.46-1.85 19.9 2.1.1-1.05v-1.05h-20ZM1.25 7.5v20h.39l.38-.01L1.25 7.5Zm-.9.78-20-.29v.29h20ZM1.9 30.15l-13.02 15.18L1.9 30.15Zm2.38.86V11h-.65l-.64.04L4.28 31Zm23.5-1.56L43.25 42.1 27.78 29.45Zm20.87-2.63V8.16h-40v18.66h40Zm0-18.66a20.54 20.54 0 0 0-19.81-20.64L27.4 27.48A19.46 19.46 0 0 1 8.65 8.16h40ZM28.12-12.5h-.5v40h.5v-40Zm-.5 0A20.47 20.47 0 0 0 8.92-.38c-1.8 4-1.83 7.56-1.84 8.47l40 .3c0 .73-.02 3.91-1.67 7.6a19.47 19.47 0 0 1-17.8 11.51v-40ZM7.08 8.24v.05h40v-.04h-40Zm0 .05v.01h40-40Zm0 .02v10.51a8359.27 8359.27 0 0 1 0 7.25c0 .79 0 .45.01.01l39.97 1.52c.02-.51.02-1.37.02-1.45a1362.33 1362.33 0 0 0 0-7.34V8.3l-40 .02Zm.01 17.79c.05-1.35.38-7.05 5.28-11.77l27.77 28.8a22.68 22.68 0 0 0 6.92-15.54L7.1 26.09Zm6.13-12.54a17.51 17.51 0 0 1 12.43-4.2 19.23 19.23 0 0 1 1.17.1h.06s.02 0-2.24 19.87a2063.4 2063.4 0 0 0-2.24 19.88h.05a14.8 14.8 0 0 0 1.25.1 21.38 21.38 0 0 0 5.56-.45A22.49 22.49 0 0 0 39.3 43.9L13.22 13.56Zm11.42 15.77v-20h-.87A17598.02 17598.02 0 0 1 5.1 9.31c-1.07 0-.61 0 0 .03L2.88 49.27c.97.06 7.17.06 11.6.06h10.16v-20ZM7.38 9.6c.43.08 2.52.43 4.93 1.66 2.57 1.3 4.78 3.2 6.4 5.51l-32.67 23.07C-8.96 46.9-2.1 48.55.59 49L7.38 9.6Zm11.34 7.18a17.34 17.34 0 0 1 3.13 11.4 21.7 21.7 0 0 1-.03.28v.08c0 .01 0 .02-19.9-2.08l-19.89-2.09v.09a31.34 31.34 0 0 0-.07.78 22.65 22.65 0 0 0 .12 4.2 22.66 22.66 0 0 0 3.95 10.4l32.69-23.06Zm3.2 9.68V8.3h-40v18.14h40Zm0-18.14A20.74 20.74 0 0 0 2.28-12.47a20.44 20.44 0 0 0-1.76-.01H.5c-.01 0-.03 0 .75 19.98.77 20 .75 20 .75 20h-.07a28.65 28.65 0 0 1-1.65-.01 19.35 19.35 0 0 1-16-10.04 19.03 19.03 0 0 1-2.36-9.13h40ZM1.25-12.49h-.3v40h.3v-40Zm-.3 0A20.52 20.52 0 0 0-17.68-.66 21.17 21.17 0 0 0-19.64 8l40 .58c-.02.76-.05 4-1.8 7.72A19.44 19.44 0 0 1 .95 27.5v-40Zm-20.6 20.77v18.54h40V8.28h-40Zm0 18.54c0 7.06 2.92 13.7 8.53 18.51l26.05-30.35a15.62 15.62 0 0 1 4 5.37 15.72 15.72 0 0 1 1.42 6.47h-40Zm8.53 18.51a23.59 23.59 0 0 0 16.56 5.65h.06l.03-.01h.01c.01 0 .02 0-1.26-19.96C2.99 11.05 3 11.05 3 11.05h.04A537.28 537.28 0 0 1 4 11a17.44 17.44 0 0 1 3.65.36c1.88.4 4.64 1.34 7.29 3.6l-26.05 30.36Zm15.4-14.32v20h20.63l-.1-40H4.27v20ZM24.9 51c7.1-.02 13.8-3.34 18.35-8.9L12.3 16.8A16.17 16.17 0 0 1 24.8 11l.11 40Zm18.36-8.91a23.97 23.97 0 0 0 5.38-15.11 22.37 22.37 0 0 0-.02-.9v-.04l-19.98.77-19.99.76v-.04a23.42 23.42 0 0 1 .01-1.62 16.04 16.04 0 0 1 3.6-9.11l31 25.29Z" mask="url(#b)"/>
    </g>
    <defs>
      <clipPath id="a">
        <path fill="#fff" d="M0 0h29v31H0z"/>
      </clipPath>
    </defs>
  </symbol>

  <symbol viewBox="0 0 25 30" id="icon-eat">
    <path fill-rule="evenodd" clip-rule="evenodd" d="M18.6173 0.0761497C18.991 -0.0786313 19.4211 0.00692445 19.7071 0.292922C20.6156 1.20142 21.8038 3.17065 22.7659 6.21082C23.7373 9.28039 24.5 13.5081 24.5 19C24.5 19.5523 24.0523 20 23.5 20H20V29C20 29.5523 19.5523 30 19 30C18.4477 30 18 29.5523 18 29V1.00003C18 0.595567 18.2436 0.230931 18.6173 0.0761497ZM20 18H22.4912C22.4053 13.1836 21.7051 9.48755 20.8591 6.81424C20.5807 5.93457 20.2885 5.1715 20 4.51895V18Z"/>
    <path fill-rule="evenodd" clip-rule="evenodd" d="M6 0C6.55228 0 7 0.447715 7 1V29C7 29.5523 6.55228 30 6 30C5.44772 30 5 29.5523 5 29V1C5 0.447715 5.44772 0 6 0Z"/>
    <path fill-rule="evenodd" clip-rule="evenodd" d="M1.5 0C2.05228 0 2.5 0.447715 2.5 1V6.5C2.5 7.05686 2.69203 7.81518 3.20088 8.41656C3.68001 8.98281 4.51446 9.5 5.99993 9.5C6.55221 9.5 6.99993 9.94771 6.99993 10.5C6.99993 11.0523 6.55221 11.5 5.99993 11.5C3.98547 11.5 2.56995 10.7672 1.6741 9.70844C0.807973 8.68482 0.5 7.44314 0.5 6.5V1C0.5 0.447715 0.947715 0 1.5 0Z"/>
    <path fill-rule="evenodd" clip-rule="evenodd" d="M10.5 0C9.94771 0 9.5 0.447715 9.5 1V6.5C9.5 7.05686 9.30797 7.81518 8.79912 8.41656C8.31999 8.98281 7.4854 9.5 5.99993 9.5C5.44765 9.5 5.00007 9.94771 5.00007 10.5C5.00007 11.0523 5.44765 11.5 5.99993 11.5C8.01439 11.5 9.43005 10.7672 10.3259 9.70844C11.192 8.68482 11.5 7.44314 11.5 6.5V1C11.5 0.447715 11.0523 0 10.5 0Z"/>
  </symbol>

  <symbol viewBox="0 0 32 33" fill="none" id="icon-watch">
    <ellipse cx="21.2042" cy="11.3299" rx="1.0873" ry="1.08512" fill="white"/>
    <ellipse cx="10.3311" cy="11.3299" rx="1.08731" ry="1.08512" fill="white"/>
    <ellipse cx="10.3311" cy="24.3512" rx="1.08731" ry="1.08512" fill="white"/>
    <ellipse cx="15.7677" cy="26.5215" rx="1.0873" ry="1.08512" fill="white"/>
    <ellipse cx="7.06924" cy="17.7748" rx="1.08731" ry="1.08512" fill="white"/>
    <ellipse cx="24.4661" cy="17.7748" rx="1.0873" ry="1.08512" fill="white"/>
    <ellipse cx="21.2042" cy="24.3512" rx="1.0873" ry="1.08512" fill="white"/>
    <mask id="path-8-inside-1_130_940" fill="white">
      <path fill-rule="evenodd" clip-rule="evenodd" d="M20.9215 29.0581C21.3298 28.8622 21.8226 28.9298 22.1385 29.2542L23.9644 31.1292C24.2319 31.4039 24.6734 31.4039 24.941 31.1292C25.1987 30.8645 25.1987 30.4427 24.941 30.1781L23.5843 28.7849C23.1584 28.3475 23.2228 27.6356 23.682 27.2333C26.3238 24.9195 28 21.4688 28 17.6145C28 10.6477 22.5235 5 15.7678 5C9.01218 5 3.53564 10.6477 3.53564 17.6145C3.53564 21.4288 5.17729 24.8477 7.77166 27.1608C8.22438 27.5644 8.28489 28.2708 7.86173 28.7054L6.42757 30.1781C6.16985 30.4427 6.16984 30.8645 6.42756 31.1291C6.69513 31.4039 7.13664 31.4039 7.40421 31.1292L9.28384 29.199C9.60245 28.8718 10.1004 28.8061 10.5102 29.0076C12.103 29.7907 13.8858 30.229 15.7678 30.229C17.609 30.229 19.3553 29.8095 20.9215 29.0581ZM15.7678 28.8274C21.7728 28.8274 26.6409 23.8072 26.6409 17.6145C26.6409 11.4218 21.7728 6.40161 15.7678 6.40161C9.7628 6.40161 4.89478 11.4218 4.89478 17.6145C4.89478 23.8072 9.7628 28.8274 15.7678 28.8274ZM15.0083 17.298V13.5001V9.94092C15.0083 9.50942 15.3581 9.15963 15.7895 9.15963C16.221 9.15963 16.5708 9.50942 16.5708 9.94092V13.5001V17.298V17.8406V18.1226C16.5708 18.5661 16.2113 18.9257 15.7677 18.9257C15.3483 18.9257 15.0083 18.5857 15.0083 18.1663V17.8406V17.298Z"/>
    </mask>
    <path fill-rule="evenodd" clip-rule="evenodd" d="M20.9215 29.0581C21.3298 28.8622 21.8226 28.9298 22.1385 29.2542L23.9644 31.1292C24.2319 31.4039 24.6734 31.4039 24.941 31.1292C25.1987 30.8645 25.1987 30.4427 24.941 30.1781L23.5843 28.7849C23.1584 28.3475 23.2228 27.6356 23.682 27.2333C26.3238 24.9195 28 21.4688 28 17.6145C28 10.6477 22.5235 5 15.7678 5C9.01218 5 3.53564 10.6477 3.53564 17.6145C3.53564 21.4288 5.17729 24.8477 7.77166 27.1608C8.22438 27.5644 8.28489 28.2708 7.86173 28.7054L6.42757 30.1781C6.16985 30.4427 6.16984 30.8645 6.42756 31.1291C6.69513 31.4039 7.13664 31.4039 7.40421 31.1292L9.28384 29.199C9.60245 28.8718 10.1004 28.8061 10.5102 29.0076C12.103 29.7907 13.8858 30.229 15.7678 30.229C17.609 30.229 19.3553 29.8095 20.9215 29.0581ZM15.7678 28.8274C21.7728 28.8274 26.6409 23.8072 26.6409 17.6145C26.6409 11.4218 21.7728 6.40161 15.7678 6.40161C9.7628 6.40161 4.89478 11.4218 4.89478 17.6145C4.89478 23.8072 9.7628 28.8274 15.7678 28.8274ZM15.0083 17.298V13.5001V9.94092C15.0083 9.50942 15.3581 9.15963 15.7895 9.15963C16.221 9.15963 16.5708 9.50942 16.5708 9.94092V13.5001V17.298V17.8406V18.1226C16.5708 18.5661 16.2113 18.9257 15.7677 18.9257C15.3483 18.9257 15.0083 18.5857 15.0083 18.1663V17.8406V17.298Z" fill="white"/>
    <path d="M9.28384 29.199L12.1495 31.9896L9.28384 29.199ZM10.5102 29.0076L12.275 25.418L10.5102 29.0076ZM7.40421 31.1292L4.53851 28.3385L7.40421 31.1292ZM6.42757 30.1781L9.29325 32.9687L6.42757 30.1781ZM23.5843 28.7849L20.7186 31.5756L23.5843 28.7849ZM23.682 27.2333L21.0465 24.2243L23.682 27.2333ZM7.77166 27.1608L5.10971 30.1464L7.77166 27.1608ZM7.86173 28.7054L4.99605 25.9147L7.86173 28.7054ZM24.941 30.1781L27.8067 27.3874L24.941 30.1781ZM23.9644 31.1292L26.8301 28.3385L23.9644 31.1292ZM22.1385 29.2542L19.2728 32.0449L22.1385 29.2542ZM20.9215 29.0581L19.1913 25.4516L20.9215 29.0581ZM19.2728 32.0449L21.0987 33.9198L26.8301 28.3385L25.0042 26.4636L19.2728 32.0449ZM27.8067 27.3874L26.45 25.9942L20.7186 31.5756L22.0753 32.9688L27.8067 27.3874ZM26.3175 30.2423C29.8075 27.1855 32 22.6466 32 17.6145H24C24 20.2911 22.8401 22.6534 21.0465 24.2243L26.3175 30.2423ZM32 17.6145C32 8.5555 24.8478 1 15.7678 1V9C20.1992 9 24 12.7399 24 17.6145H32ZM15.7678 1C6.68789 1 -0.464355 8.5555 -0.464355 17.6145H7.53564C7.53564 12.7399 11.3365 9 15.7678 9V1ZM-0.464355 17.6145C-0.464355 22.5943 1.68296 27.0912 5.10971 30.1464L10.4336 24.1752C8.67162 22.6042 7.53564 20.2633 7.53564 17.6145H-0.464355ZM4.99605 25.9147L3.56188 27.3874L9.29325 32.9687L10.7274 31.496L4.99605 25.9147ZM10.2699 33.9198L12.1495 31.9896L6.41814 26.4083L4.53851 28.3385L10.2699 33.9198ZM8.74538 32.5972C10.8722 33.6429 13.2573 34.229 15.7678 34.229V26.229C14.5143 26.229 13.3337 25.9385 12.275 25.418L8.74538 32.5972ZM15.7678 34.229C18.2236 34.229 20.5598 33.6681 22.6517 32.6645L19.1913 25.4516C18.1508 25.9508 16.9944 26.229 15.7678 26.229V34.229ZM15.7678 32.8274C24.0971 32.8274 30.6409 25.8994 30.6409 17.6145H22.6409C22.6409 21.715 19.4485 24.8274 15.7678 24.8274V32.8274ZM30.6409 17.6145C30.6409 9.32959 24.0971 2.40161 15.7678 2.40161V10.4016C19.4485 10.4016 22.6409 13.514 22.6409 17.6145H30.6409ZM15.7678 2.40161C7.43851 2.40161 0.894775 9.32959 0.894775 17.6145H8.89478C8.89478 13.514 12.0871 10.4016 15.7678 10.4016V2.40161ZM0.894775 17.6145C0.894775 25.8994 7.43851 32.8274 15.7678 32.8274V24.8274C12.0871 24.8274 8.89478 21.715 8.89478 17.6145H0.894775ZM12.5708 17.298V17.8406H20.5708V17.298H12.5708ZM12.5708 17.8406V18.1226H20.5708V17.8406H12.5708ZM19.0083 18.1663V17.8406H11.0083V18.1663H19.0083ZM19.0083 17.8406V17.298H11.0083V17.8406H19.0083ZM19.0083 17.298V13.5001H11.0083V17.298H19.0083ZM19.0083 13.5001V9.94092H11.0083V13.5001H19.0083ZM12.5708 9.94092V13.5001H20.5708V9.94092H12.5708ZM12.5708 13.5001V17.298H20.5708V13.5001H12.5708ZM15.7895 5.15963C13.1489 5.15963 11.0083 7.30029 11.0083 9.94092H19.0083C19.0083 11.7186 17.5672 13.1596 15.7895 13.1596V5.15963ZM12.5708 18.1226C12.5708 16.357 14.0021 14.9257 15.7677 14.9257V22.9257C18.4204 22.9257 20.5708 20.7753 20.5708 18.1226H12.5708ZM12.1495 31.9896C11.1569 33.009 9.7521 33.0922 8.74538 32.5972L12.275 25.418C10.4487 24.52 8.04805 24.7346 6.41814 26.4083L12.1495 31.9896ZM3.56185 33.9198C5.39966 35.807 8.4321 35.807 10.2699 33.9198L4.53851 28.3385C5.84118 27.0008 7.99061 27.0008 9.29327 28.3385L3.56185 33.9198ZM3.56188 27.3874C1.79175 29.2051 1.79174 32.1021 3.56185 33.9198L9.29327 28.3385C10.548 29.6269 10.5479 31.6803 9.29325 32.9687L3.56188 27.3874ZM26.45 25.9942C27.7927 27.3731 27.394 29.2994 26.3175 30.2423L21.0465 24.2243C19.0515 25.9717 18.524 29.3219 20.7186 31.5756L26.45 25.9942ZM15.7895 13.1596C14.0119 13.1596 12.5708 11.7186 12.5708 9.94092H20.5708C20.5708 7.30028 18.4302 5.15963 15.7895 5.15963V13.1596ZM5.10971 30.1464C4.0463 29.1983 3.66263 27.2839 4.99605 25.9147L10.7274 31.496C12.9071 29.2577 12.4025 25.9306 10.4336 24.1752L5.10971 30.1464ZM27.8067 33.9198C29.5768 32.1021 29.5768 29.2051 27.8067 27.3874L22.0753 32.9688C20.8206 31.6803 20.8206 29.6269 22.0753 28.3385L27.8067 33.9198ZM21.0987 33.9198C22.9365 35.807 25.9689 35.807 27.8067 33.9198L22.0753 28.3385C23.378 27.0008 25.5274 27.0008 26.8301 28.3385L21.0987 33.9198ZM15.7677 14.9257C17.5574 14.9257 19.0083 16.3765 19.0083 18.1663H11.0083C11.0083 20.7948 13.1391 22.9257 15.7677 22.9257V14.9257ZM25.0042 26.4636C23.3881 24.804 21.0117 24.5783 19.1913 25.4516L22.6517 32.6645C21.648 33.1461 20.257 33.0555 19.2728 32.0449L25.0042 26.4636Z" fill="white" mask="url(#path-8-inside-1_130_940)"/>
    <rect x="15" y="6" width="4" height="1.5" transform="rotate(-90 15 6)" fill="white"/>
    <rect x="8" y="2" width="15.5" height="1.5" rx="0.75" fill="white"/>
  </symbol>

  <symbol class="program-card__icon-arrow" viewBox="0 0 32 12" preserveAspectRatio="xMaxYMid slice" id="icon-arrow">
    <line y1="6" x2="26" y2="6" fill="none" stroke-width="2"/>
    <path d="M32 6L25.25 11.1962L25.25 0.803848L32 6Z" stroke="none"/>
  </symbol>

<!-- CATALOG.HTML -->

  <symbol viewBox="0 0 78 80" id="icon-gift">
    <path d="M64.0156 34.7129H14.031C12.2766 34.7129 10.8494 33.2954 10.8494 31.5526V22.0845C10.8494 20.3417 12.2766 18.9236 14.031 18.9236H64.0149C65.7687 18.9236 67.1953 20.3417 67.1953 22.0845V31.5533C67.1959 33.2954 65.7693 34.7129 64.0156 34.7129ZM14.031 21.3457C13.6276 21.3457 13.2869 21.6842 13.2869 22.0845V31.5533C13.2869 31.9602 13.6208 32.2914 14.031 32.2914H64.0149C64.4244 32.2914 64.7578 31.9602 64.7578 31.5533V22.0845C64.7578 21.6836 64.4171 21.3457 64.0149 21.3457H14.031Z"/>
    <path d="M57.0447 67.1491H20.999C17.6218 67.1491 14.8741 64.4193 14.8741 61.0628V33.5018C14.8741 32.8333 15.4201 32.2908 16.0929 32.2908C16.7656 32.2908 17.3116 32.8333 17.3116 33.5018V61.0628C17.3116 63.0835 18.9661 64.7269 20.999 64.7269H57.0447C59.077 64.7269 60.7308 63.0835 60.7308 61.0628V33.5018C60.7308 32.8333 61.2768 32.2908 61.9496 32.2908C62.6223 32.2908 63.1683 32.8333 63.1683 33.5018V61.0628C63.1683 64.4193 60.4213 67.1491 57.0447 67.1491Z"/>
    <path d="M39.0225 67.1491C38.3498 67.1491 37.8038 66.6071 37.8038 65.938V33.5018C37.8038 32.8333 38.3498 32.2908 39.0225 32.2908C39.6953 32.2908 40.2413 32.8333 40.2413 33.5018V65.9374C40.2413 66.6071 39.6959 67.1491 39.0225 67.1491Z"/>
    <path d="M23.8113 21.3416C19.9966 19.2876 18.5731 14.533 20.6383 10.7417C22.7022 6.95225 27.4864 5.53711 31.303 7.58746C37.117 10.7169 40.2565 19.4475 40.3869 19.8175L38.0877 20.621C38.0585 20.5387 35.1256 12.3997 30.1433 9.71773C27.5078 8.30199 24.2062 9.27933 22.7821 11.8946C21.3567 14.5124 22.339 17.7944 24.9734 19.2119L23.8113 21.3416Z"/>
    <path d="M54.2313 21.3416L53.071 19.2113C54.3477 18.524 55.2782 17.385 55.6926 16.0038C56.1063 14.622 55.9534 13.1626 55.2617 11.8952C54.5719 10.6266 53.4263 9.70258 52.0363 9.29142C50.6457 8.88026 49.1783 9.03164 47.9023 9.71771C42.9201 12.399 39.9871 20.538 39.9579 20.6204L37.6587 19.8168C37.7891 19.4469 40.928 10.7162 46.7421 7.58744C48.5897 6.59315 50.7182 6.37394 52.7316 6.96979C54.7468 7.56503 56.4061 8.90508 57.4061 10.7417C58.4073 12.5777 58.6285 14.6916 58.0289 16.6941C57.4287 18.696 56.0801 20.3461 54.2313 21.3416Z"/>
    <path d="M61.9496 50.9317H16.0929C15.4201 50.9317 14.8741 50.3891 14.8741 49.7206C14.8741 49.0521 15.4201 48.5095 16.0929 48.5095H61.9496C62.6223 48.5095 63.1683 49.0521 63.1683 49.7206C63.1683 50.3891 62.6229 50.9317 61.9496 50.9317Z"/>
  </symbol>

<!-- FORM.HTML -->

  <symbol viewBox="0 0 19 14" fill="none" id="icon-email">
    <line x1="1.18" y1="6" x2="1.18" y2="14" stroke-width="1.3"/>
    <line x1="18.18" y1="6" x2="18.18" y2="14" stroke-width="1.3"/>
    <line x1=".53" y1="13.35" x2="18.53" y2="13.35" stroke-width="1.3"/>
    <line x1=".53" y1="1.35" x2="18.53" y2="1.35"  stroke-width="1.3"/>
    <path d="m17.88 3.18-8.35 6.5-8.35-6.5V1.65h16.7v1.53Z" stroke-width="1.3"/>
  </symbol>

  <symbol viewBox="0 0 20 20" id="icon-phone">
    <g clip-path="url(#clip0_2403_1829)">
      <path d="M17.9 9.4H9.40002V10.6H17.9L15.8 12.7L16.7 13.6L19.8 10.5C19.8974 10.3702 19.95 10.2123 19.95 10.05C19.95 9.88772 19.8974 9.72982 19.8 9.6L16.7 6.5L15.8 7.4L17.9 9.4Z"/>
      <path d="M8.09995 19.4V13.2C8.0884 13.0447 8.02148 12.8987 7.91136 12.7886C7.80125 12.6785 7.65525 12.6116 7.49995 12.6H3.09995C3.1051 12.9167 3.23318 13.2189 3.45712 13.4428C3.68106 13.6668 3.9833 13.7949 4.29995 13.8H6.79995V18.8H3.09995C2.86319 18.8149 2.62585 18.7825 2.4017 18.7048C2.17756 18.6271 1.97109 18.5057 1.7943 18.3475C1.61751 18.1893 1.47393 17.9976 1.37189 17.7834C1.26986 17.5693 1.21142 17.337 1.19995 17.1V3.10001C1.19175 2.6373 1.3651 2.18977 1.68286 1.85331C2.00062 1.51686 2.43752 1.31824 2.89995 1.30001H6.79995V6.30001H4.39995C4.0833 6.30516 3.78106 6.43324 3.55712 6.65718C3.33318 6.88112 3.2051 7.18336 3.19995 7.50001H7.59995C7.75525 7.48846 7.90125 7.42154 8.01136 7.31142C8.12148 7.2013 8.1884 7.05531 8.19995 6.90001V0.600012C8.15226 0.443872 8.06111 0.304534 7.93715 0.198285C7.81319 0.0920352 7.66155 0.0232649 7.49995 1.23734e-05H3.09995C2.70593 -0.0133408 2.31315 0.0511002 1.94405 0.189651C1.57495 0.328202 1.23678 0.538145 0.948872 0.807477C0.660965 1.07681 0.428969 1.40025 0.266146 1.7593C0.103324 2.11835 0.0128689 2.50598 -4.64045e-05 2.90001V16.8C-0.0290254 17.1977 0.0245894 17.597 0.157426 17.9729C0.290263 18.3489 0.499448 18.6932 0.771825 18.9844C1.0442 19.2756 1.37388 19.5072 1.74012 19.6648C2.10637 19.8224 2.50126 19.9024 2.89995 19.9H7.49995C7.57344 19.915 7.64937 19.9133 7.7221 19.895C7.79484 19.8767 7.86253 19.8423 7.92015 19.7942C7.97777 19.7462 8.02385 19.6859 8.05497 19.6176C8.0861 19.5494 8.10147 19.475 8.09995 19.4Z"/>
    </g>
    <defs>
      <clipPath id="clip0_2403_1829">
        <rect width="20" height="20"/>
      </clipPath>
    </defs>
  </symbol>


<!-- GLOBAL - FOOTER -->

  <symbol viewBox="0 0 30 22" id="icon-vkontakte">
    <path d="M.1 5.49c0-.86.54-1.32 1.65-1.38L6 4.13c.29 0 .48.13.57.38.44 1.26.93 2.34 1.47 3.26.54.9 1.25 1.96 2.13 3.15.07.15.2.23.37.23.13 0 .24-.06.31-.18l.09-.27.03-4.36c0-.3-.08-.5-.25-.6-.16-.1-.46-.17-.9-.22-.34-.06-.5-.24-.5-.56 0-.07 0-.12.02-.15.4-1.09 1.54-1.63 3.43-1.63l1.6-.03c.72 0 1.32.16 1.8.48.47.32.7.82.7 1.5v5.72a.7.7 0 0 0 .38.12c.28 0 .53-.15.74-.45 2.1-2.58 3.23-4.3 3.4-5.18l.05-.13c.14-.25.36-.47.66-.65.3-.19.57-.31.8-.38a.63.63 0 0 1 .26-.05h4.42l.29.03a1 1 0 0 1 .88.47c.08.1.13.21.16.33a2.26 2.26 0 0 1 .07.56v.17a5.9 5.9 0 0 1-1.01 2.2c-.55.78-1.24 1.62-2.07 2.53-.84.9-1.36 1.5-1.57 1.78-.17.2-.26.39-.26.56 0 .13.08.28.23.45l4.17 4.63c.22.27.34.56.34.88 0 .38-.17.7-.51.95-.35.25-.76.4-1.23.43l-.49.03h-4.34a1 1 0 0 0-.11 0l-.11.02c-.42 0-.81-.16-1.18-.48a245.7 245.7 0 0 1-2.68-2.96c-.1-.12-.23-.23-.4-.33l-.3 1.16-.27 1.08-.09.42c-.19.6-.58.94-1.2 1.06l-.4.03h-2.8c-1.57 0-3.15-.64-4.72-1.92a19.62 19.62 0 0 1-4.23-4.94A46.13 46.13 0 0 1 .23 6.22a1.8 1.8 0 0 1-.14-.73ZM17.24 12c-.4 0-.76-.1-1.09-.29-.32-.19-.48-.45-.48-.79V5.14c0-.34-.1-.58-.29-.72-.19-.14-.52-.21-1-.21l-1.62.05c-.82 0-1.44.12-1.86.37.84.36 1.26.93 1.26 1.71v4.43c-.04.42-.23.77-.57 1.04-.35.28-.73.42-1.15.42-.57 0-1-.24-1.3-.73a25.68 25.68 0 0 1-3.32-5.63l-.26-.66-3.8-.02c-.24 0-.38.01-.4.04-.04.02-.05.1-.05.21 0 .15.02.31.06.48l.6 1.4c1.6 3.64 3.33 6.51 5.2 8.6 1.88 2.1 3.72 3.15 5.53 3.15h2.85c.12 0 .2-.03.26-.09s.1-.17.14-.34l.06-.25.54-2.21c.15-.3.29-.5.4-.6.21-.19.46-.28.74-.28.46 0 .93.24 1.4.73l2.43 2.71c.15.22.31.33.48.33h4.72c.57 0 .85-.13.85-.38a.44.44 0 0 0-.08-.25l-4.14-4.55a1.65 1.65 0 0 1-.49-1.13c0-.4.15-.79.46-1.16.25-.33.73-.9 1.44-1.67.71-.78 1.34-1.51 1.87-2.19.53-.68.88-1.3 1.06-1.85l.08-.32a.35.35 0 0 1-.03-.17c0-.07 0-.14-.03-.19h-4.48c-.28.1-.51.25-.68.46l-.17.47c-.48 1.16-1.73 2.95-3.74 5.36-.4.34-.87.5-1.4.5Z"/>
  </symbol>

  <symbol viewBox="0 0 23 23" id="icon-instagram">
    <g clip-path="url(#a)">
      <path d="M11.48.09c1.91 0 3.48.02 4.7.07 1.03.04 1.95.22 2.75.54a5.73 5.73 0 0 1 3.33 3.32c.31.8.5 1.73.54 2.76.04 1.22.07 2.78.07 4.7 0 1.91-.03 3.48-.07 4.7a8.63 8.63 0 0 1-.54 2.75 5.73 5.73 0 0 1-3.33 3.33c-.8.31-1.72.5-2.76.54-1.21.04-2.78.07-4.7.07-1.9 0-3.47-.03-4.69-.07a8.63 8.63 0 0 1-2.76-.54A5.73 5.73 0 0 1 .7 18.93c-.32-.8-.5-1.72-.54-2.76-.05-1.21-.07-2.78-.07-4.7 0-1.9.02-3.47.07-4.69C.2 5.75.38 4.83.7 4.02A5.73 5.73 0 0 1 4.02.7C4.82.38 5.75.2 6.78.16 8 .1 9.56.09 11.48.09Zm0 1.48c-2 0-3.62.02-4.88.07-.8.03-1.55.17-2.24.43a4.1 4.1 0 0 0-2.3 2.29c-.25.69-.39 1.43-.42 2.24-.05 1.26-.07 2.89-.07 4.88 0 1.99.02 3.61.07 4.87.03.81.17 1.56.43 2.25a4.1 4.1 0 0 0 2.29 2.29c.69.25 1.43.4 2.24.43 1.26.04 2.89.06 4.88.06 1.99 0 3.61-.02 4.87-.06.81-.03 1.56-.18 2.25-.43a4.1 4.1 0 0 0 2.29-2.3c.25-.68.4-1.43.43-2.24.04-1.26.06-2.88.06-4.87 0-2-.02-3.62-.06-4.88a7.21 7.21 0 0 0-.43-2.24 4.1 4.1 0 0 0-2.3-2.3 7.21 7.21 0 0 0-2.24-.42c-1.26-.05-2.88-.07-4.87-.07Zm0 14.47a4.4 4.4 0 0 0 3.22-1.34 4.4 4.4 0 0 0 1.34-3.22 4.4 4.4 0 0 0-1.34-3.23 4.4 4.4 0 0 0-3.22-1.33 4.4 4.4 0 0 0-3.23 1.33 4.4 4.4 0 0 0-1.33 3.23 4.4 4.4 0 0 0 1.33 3.22 4.4 4.4 0 0 0 3.23 1.34Zm0-10.4c1.61 0 3 .57 4.13 1.7a5.63 5.63 0 0 1 1.7 4.14c0 1.61-.56 3-1.7 4.13a5.63 5.63 0 0 1-4.13 1.7c-1.62 0-3-.56-4.14-1.7a5.63 5.63 0 0 1-1.7-4.13c0-1.62.57-3 1.7-4.14a5.63 5.63 0 0 1 4.14-1.7Zm7.45-.23a1.36 1.36 0 0 1-1.4 1.35c-.36 0-.68-.13-.94-.4a1.3 1.3 0 0 1-.4-.95 1.36 1.36 0 0 1 1.35-1.39c.38 0 .7.14.98.42.28.27.41.6.41.97Z"/>
    </g>
    <defs>
      <clipPath id="a">
        <rect width="23" height="23" />
      </clipPath>
    </defs>
  </symbol>

  <symbol viewBox="0 0 28 33" fill="none" id="icon-facebook">
    <path d="M21 2.75h-3.5c-1.55 0-3.03.71-4.12 1.97a7.3 7.3 0 0 0-1.71 4.77v4.05h-3.5v5.39h3.5V29.7h4.66V18.93h3.5l1.17-5.4h-4.67V9.5c0-.36.13-.7.35-.95.21-.26.51-.4.82-.4H21V2.75Z" stroke-width="1.1" stroke-linecap="round" stroke-linejoin="round"/>
  </symbol>
</svg>
